{"title":"Bangistan (2015) - 1CD - Desi PDVDRip - XviD - MP3 - Team IcTv E","uid":12219132,"size":750476720,"categoryP":"video","categoryS":"movies","magnet":"?xt=urn:btih:c75c9989714be1290cc52e86a198c5a658355672&amp;dn=Bangistan+%282015%29+-+1CD+-+Desi+PDVDRip+-+XviD+-+MP3+-+Team+IcTv+E&amp;tr=udp%3A%2F%2Ftracker.openbittorrent.com%3A80&amp;tr=udp%3A%2F%2Fopen.demonii.com%3A1337&amp;tr=udp%3A%2F%2Ftracker.coppersurfer.tk%3A6969&amp;tr=udp%3A%2F%2Fexodus.desync.com%3A6969","seeders":11,"leechers":6,"uploader":"SS132203","files":3,"time":1439316931,"description":"Bangistan (2015) - 1CD - Desi PDVDRip - XviD - MP3 - Team IcTv Exclusive -={SPARROW}=-\n &lt;a href=&quot;\nhttp://imgsparrow.co/image/8En&quot; rel=&quot;nofollow&quot; target=&quot;_NEW&quot;&gt;\nhttp://imgsparrow.co/image/8En&lt;/a&gt;\n &lt;a href=&quot;\nhttp://imgsparrow.co/image/8Eu&quot; rel=&quot;nofollow&quot; target=&quot;_NEW&quot;&gt;\nhttp://imgsparrow.co/image/8Eu&lt;/a&gt;\n &lt;a href=&quot;\nhttp://imgsparrow.co/image/9b&quot; rel=&quot;nofollow&quot; target=&quot;_NEW&quot;&gt;\nhttp://imgsparrow.co/image/9b&lt;/a&gt;\n\nInfo : - \n\nPlease Support The Filmmakers\nDon't Just Download Go Watch In Theater Also\n\nFormat                      : AVI\nFormat/Info                 : Audio Video Interleave\nFile size                   : 706 MiB\nDuration                    : 2h 6mn\nOverall bit rate            : 779 Kbps\n\nVideo\nID                          : 0\nFormat                      : MPEG-4 Visual\nCodec ID                    : DIVX\nCodec ID/Info               : Project Mayo\nCodec ID/Hint               : DivX 4\nDuration                    : 2h 6mn\nBit rate                    : 655 Kbps\nWidth                       : 640 pixels\nHeight                      : 264 pixels\nDisplay aspect ratio        : 2.40:1\nFrame rate                  : 23.976 fps\nColor space                 : YUV\nChroma subsampling          : 4:2:0\nCompression mode            : Lossy\nBits/(Pixel*Frame)          : 0.162\nStream size                 : 594 MiB (84%)\n\nAudio\nID                          : 1\nFormat                      : MPEG Audio\nFormat version              : Version 1\nFormat profile              : Layer 3\nMode                        : Joint stereo\nMode extension              : MS Stereo\nCodec ID                    : 55\nCodec ID/Hint               : MP3\nDuration                    : 1h 19mn\nSource duration             : 1h 50mn\nBit rate mode               : Constant\nBit rate                    : 112 Kbps\nChannel(s)                  : 2 channels\nSampling rate               : 44.1 KHz\nCompression mode            : Lossy\nStream size                 : 102 MiB (14%)\n\nScreens : - \n &lt;a href=&quot;\nhttp://imgsparrow.co/image/8u5&quot; rel=&quot;nofollow&quot; target=&quot;_NEW&quot;&gt;\nhttp://imgsparrow.co/image/8u5&lt;/a&gt;  &lt;a href=&quot;\nhttp://imgsparrow.co/image/8uA&quot; rel=&quot;nofollow&quot; target=&quot;_NEW&quot;&gt;\nhttp://imgsparrow.co/image/8uA&lt;/a&gt;  &lt;a href=&quot;\nhttp://imgsparrow.co/image/8uQ&quot; rel=&quot;nofollow&quot; target=&quot;_NEW&quot;&gt;\nhttp://imgsparrow.co/image/8uQ&lt;/a&gt;  &lt;a href=&quot;\nhttp://imgsparrow.co/image/8uZ&quot; rel=&quot;nofollow&quot; target=&quot;_NEW&quot;&gt;\nhttp://imgsparrow.co/image/8uZ&lt;/a&gt;  &lt;a href=&quot;\nhttp://imgsparrow.co/image/8ua&quot; rel=&quot;nofollow&quot; target=&quot;_NEW&quot;&gt;\nhttp://imgsparrow.co/image/8ua&lt;/a&gt;  &lt;a href=&quot;\nhttp://imgsparrow.co/image/8uf&quot; rel=&quot;nofollow&quot; target=&quot;_NEW&quot;&gt;\nhttp://imgsparrow.co/image/8uf&lt;/a&gt;  &lt;a href=&quot;\nhttp://imgsparrow.co/image/8uI&quot; rel=&quot;nofollow&quot; target=&quot;_NEW&quot;&gt;\nhttp://imgsparrow.co/image/8uI&lt;/a&gt;  &lt;a href=&quot;\nhttp://imgsparrow.co/image/8uP&quot; rel=&quot;nofollow&quot; target=&quot;_NEW&quot;&gt;\nhttp://imgsparrow.co/image/8uP&lt;/a&gt;  &lt;a href=&quot;\nhttp://imgsparrow.co/image/8uW&quot; rel=&quot;nofollow&quot; target=&quot;_NEW&quot;&gt;\nhttp://imgsparrow.co/image/8uW&lt;/a&gt;\n &lt;a href=&quot;\nhttp://imgsparrow.co/image/N2&quot; rel=&quot;nofollow&quot; target=&quot;_NEW&quot;&gt;\nhttp://imgsparrow.co/image/N2&lt;/a&gt;","torrent":{"xt":"urn:btih:c75c9989714be1290cc52e86a198c5a658355672","amp;dn":"Bangistan+%282015%29+-+1CD+-+Desi+PDVDRip+-+XviD+-+MP3+-+Team+IcTv+E","amp;tr":["udp%3A%2F%2Ftracker.openbittorrent.com%3A80","udp%3A%2F%2Fopen.demonii.com%3A1337","udp%3A%2F%2Ftracker.coppersurfer.tk%3A6969","udp%3A%2F%2Fexodus.desync.com%3A6969"],"infoHash":"c75c9989714be1290cc52e86a198c5a658355672","infoHashBuffer":{"type":"Buffer","data":[199,92,153,137,113,75,225,41,12,197,46,134,161,152,197,166,88,53,86,114]},"announce":[],"urlList":[]}}